<?xml version="1.0" encoding="UTF-8"?>
<svg width="16px" height="16px" viewBox="0 0 16 16" version="1.1" xmlns="http://www.w3.org/2000/svg" xmlns:xlink="http://www.w3.org/1999/xlink">
    <!-- Generator: Sketch 46.2 (44496) - http://www.bohemiancoding.com/sketch -->
    <title>Page 1</title>
    <desc>Created with Sketch.</desc>
    <defs></defs>
    <g id="Page-1" stroke="none" stroke-width="1" fill="none" fill-rule="evenodd" opacity="0.800000012">
        <g id="Play" transform="translate(-497.000000, -344.000000)" fill="#4C5169">
            <g id="Group-10" transform="translate(497.000000, 344.000000)">
                <path d="M8,0 C10.2051397,0 12.0897354,0.782043077 13.6538462,2.34615385 C15.2179569,3.91026462 16,5.79486031 16,8 C16,10.2051397 15.2179569,12.0897354 13.6538462,13.6538462 C12.0897354,15.2179564 10.2051397,16 8,16 C5.79486031,16 3.91026462,15.2179564 2.34615385,13.6538462 C0.782043569,12.0897354 0,10.2051397 0,8 C0,5.79486031 0.782043569,3.91026462 2.34615385,2.34615385 C3.91026462,0.782043077 5.79486031,0 8,0 Z M12.1153846,8.80769231 L12.1153846,7.19230769 L3.88461538,7.19230769 L3.88461538,8.80769231 L12.1153846,8.80769231 Z" id="Page-1"></path>
            </g>
        </g>
    </g>
</svg>