<?xml version="1.0" encoding="UTF-8"?>
<svg width="16px" height="17px" viewBox="0 0 16 17" version="1.1" xmlns="http://www.w3.org/2000/svg" xmlns:xlink="http://www.w3.org/1999/xlink">
    <!-- Generator: Sketch 46.2 (44496) - http://www.bohemiancoding.com/sketch -->
    <title>Combined Shape</title>
    <desc>Created with Sketch.</desc>
    <defs></defs>
    <g id="Page-1" stroke="none" stroke-width="1" fill="none" fill-rule="evenodd" opacity="0.5">
        <g id="Play" transform="translate(-1166.000000, -186.000000)" fill="#FFFFFF">
            <path d="M1166.38438,201.814416 C1166.90803,202.338064 1167.42028,202.32668 1167.92116,201.780265 L1174,195.769731 L1180.07883,201.780265 C1180.57972,202.32668 1181.09197,202.338064 1181.61562,201.814416 C1182.13927,201.290768 1182.12788,200.778512 1181.58147,200.277632 L1175.57093,194.198796 L1181.58147,188.119961 C1182.12788,187.61908 1182.13927,187.106825 1181.61562,186.583174 C1181.09197,186.059528 1180.57972,186.070911 1180.07883,186.617327 L1174,192.627861 L1167.92116,186.617327 C1167.42028,186.070911 1166.90803,186.059528 1166.38438,186.583174 C1165.86073,187.106825 1165.87212,187.61908 1166.41853,188.119961 L1172.42906,194.198796 L1166.41853,200.277632 C1165.87212,200.778512 1165.86073,201.290768 1166.38438,201.814416 Z" id="Combined-Shape"></path>
        </g>
    </g>
</svg>