<?xml version="1.0" encoding="UTF-8"?>
<svg width="16px" height="15px" viewBox="0 0 16 15" version="1.1" xmlns="http://www.w3.org/2000/svg" xmlns:xlink="http://www.w3.org/1999/xlink">
    <!-- Generator: Sketch 46.2 (44496) - http://www.bohemiancoding.com/sketch -->
    <title>Page 1</title>
    <desc>Created with Sketch.</desc>
    <defs></defs>
    <g id="Page-1" stroke="none" stroke-width="1" fill="none" fill-rule="evenodd">
        <g id="Home" transform="translate(-1091.000000, -1563.000000)" fill="#4C5169">
            <g id="Group-12" transform="translate(-38.000000, 1142.000000)">
                <g id="Group-10" transform="translate(0.000000, 411.000000)">
                    <g id="Group-7" transform="translate(1129.000000, 5.000000)">
                        <path d="M14.6428571,14.7142857 L14.0892846,17.6071429 L1.91071429,17.6071429 L1.35714286,14.7142857 L0,14.7142857 L0,19.3214286 L16,19.3214286 L16,14.7142857 L14.6428571,14.7142857 Z M14.3035703,9.55357029 L10.2857143,9.55357029 L10.2857143,7.89285714 L5.71428571,7.89285714 L5.71428571,9.55357029 L1.75,9.55357029 L7.982144,16.0714286 L14.3035703,9.55357029 Z M10.2857143,5 L5.71428571,5 L5.71428571,5.62499886 L10.2857143,5.62499886 L10.2857143,5 Z M10.2857143,6.14285714 L5.71428571,6.14285714 L5.71428571,7.30357257 L10.2857143,7.30357257 L10.2857143,6.14285714 Z" id="Page-1"></path>
                    </g>
                </g>
            </g>
        </g>
    </g>
</svg>