<?xml version="1.0" encoding="UTF-8"?>
<svg width="32px" height="32px" viewBox="0 0 32 32" version="1.1" xmlns="http://www.w3.org/2000/svg" xmlns:xlink="http://www.w3.org/1999/xlink">
    <!-- Generator: Sketch 46.1 (44463) - http://www.bohemiancoding.com/sketch -->
    <title>Page 1</title>
    <desc>Created with Sketch.</desc>
    <defs></defs>
    <g id="Page-1" stroke="none" stroke-width="1" fill="none" fill-rule="evenodd" opacity="0.800000012">
        <g id="Home" transform="translate(-1036.000000, -2137.000000)" fill="#727896">
            <g id="Group-12" transform="translate(-38.000000, 1142.000000)">
                <g id="Group-9" transform="translate(38.000000, 900.000000)">
                    <path d="M1052,95 C1047.58331,95 1043.81252,96.562484 1040.6875,99.6875 C1037.56248,102.812516 1036,106.583312 1036,111 C1036,115.416688 1037.56248,119.187484 1040.6875,122.3125 C1043.81252,125.437516 1047.58331,127 1052,127 C1056.41669,127 1060.18748,125.437516 1063.3125,122.3125 C1066.43752,119.187484 1068,115.416688 1068,111 C1068,106.583312 1066.43752,102.812516 1063.3125,99.6875 C1060.18748,96.562484 1056.41669,95 1052,95 Z M1056.125,111 L1053.5,111 L1053.5,120.625 L1049.9375,120.625 L1049.9375,111 L1047.5,111 L1047.5,107.6875 L1049.9375,107.6875 L1049.9375,105.75 C1049.9375,104.29166 1050.20833,103.19792 1050.75,102.468752 C1051.29167,101.73958 1052.31249,101.375 1053.8125,101.375 L1056.4375,101.375 L1056.4375,104.6875 L1054.8125,104.6875 C1054.22916,104.6875 1053.86458,104.791664 1053.71875,105 C1053.57292,105.208336 1053.5,105.562496 1053.5,106.0625 L1053.5,107.6875 L1056.5,107.6875 L1056.125,111 Z" id="Page-1"></path>
                </g>
            </g>
        </g>
    </g>
</svg>