<?xml version="1.0" encoding="UTF-8"?>
<svg width="32px" height="32px" viewBox="0 0 32 32" version="1.1" xmlns="http://www.w3.org/2000/svg" xmlns:xlink="http://www.w3.org/1999/xlink">
    <!-- Generator: Sketch 46.1 (44463) - http://www.bohemiancoding.com/sketch -->
    <title>Page 1</title>
    <desc>Created with Sketch.</desc>
    <defs></defs>
    <g id="Page-1" stroke="none" stroke-width="1" fill="none" fill-rule="evenodd" opacity="0.800000012">
        <g id="Home" transform="translate(-1086.000000, -2137.000000)" fill="#727896">
            <g id="Group-12" transform="translate(-38.000000, 1142.000000)">
                <g id="Group-9" transform="translate(38.000000, 900.000000)">
                    <path d="M1102,95 C1097.58331,95 1093.81252,96.562484 1090.6875,99.6875 C1087.56248,102.812516 1086,106.583312 1086,111 C1086,115.416688 1087.56248,119.187484 1090.6875,122.3125 C1093.81252,125.437516 1097.58331,127 1102,127 C1106.41669,127 1110.18748,125.437516 1113.3125,122.3125 C1116.43752,119.187484 1118,115.416688 1118,111 C1118,106.583312 1116.43752,102.812516 1113.3125,99.6875 C1110.18748,96.562484 1106.41669,95 1102,95 Z M1097.5625,121.75 C1095.72916,121.75 1094.17709,121.406252 1092.90625,120.718752 C1091.63541,120.031248 1091,119.125004 1091,118 C1091,116.833328 1091.61458,115.781256 1092.84375,114.843752 C1094.07292,113.906244 1095.54166,113.4375 1097.25,113.4375 C1097.41667,113.4375 1097.61458,113.4375 1097.84375,113.4375 C1098.07292,113.4375 1098.25,113.4375 1098.375,113.4375 C1097.79166,112.854164 1097.5,112.250004 1097.5,111.625 C1097.5,111.25 1097.60416,110.854168 1097.8125,110.4375 C1097.64583,110.479168 1097.45834,110.5 1097.25,110.5 C1095.83333,110.5 1094.66667,110.052088 1093.75,109.156248 C1092.83333,108.260412 1092.375,107.166672 1092.375,105.875 C1092.375,104.624992 1092.9375,103.531256 1094.0625,102.593752 C1095.1875,101.656244 1096.47916,101.1875 1097.9375,101.1875 L1104.3125,101.1875 L1102.875,102.1875 L1100.875,102.1875 C1101.5,102.4375 1102,102.906248 1102.375,103.593752 C1102.75,104.281252 1102.9375,105.041664 1102.9375,105.875 C1102.9375,107.166672 1102.33334,108.270828 1101.125,109.1875 C1100.625,109.604168 1100.29167,109.927084 1100.125,110.156248 C1099.95833,110.385416 1099.875,110.6875 1099.875,111.0625 C1099.875,111.562504 1100.4375,112.208328 1101.5625,113 C1102.39584,113.625004 1102.97916,114.23958 1103.3125,114.843752 C1103.64584,115.44792 1103.8125,116.22916 1103.8125,117.1875 C1103.8125,118.39584 1103.25,119.458328 1102.125,120.375 C1101,121.291672 1099.47918,121.75 1097.5625,121.75 Z M1114,109.0625 L1110,109.0625 L1110,113 L1108,113 L1108,109.0625 L1104,109.0625 L1104,107 L1108,107 L1108,103 L1110,103 L1110,107 L1114,107 L1114,109.0625 Z M1099.5625,114.25 C1099.02083,114.083332 1098.47917,114 1097.9375,114 C1096.72916,114 1095.65626,114.333332 1094.71875,115 C1093.78124,115.666672 1093.3125,116.437496 1093.3125,117.3125 C1093.3125,118.27084 1093.70833,119.083332 1094.5,119.75 C1095.29167,120.416668 1096.29166,120.75 1097.5,120.75 C1100.62502,120.75 1102.1875,119.645844 1102.1875,117.4375 C1102.1875,117.229164 1102.14583,117 1102.0625,116.75 C1102.0625,116.625 1102.03125,116.5 1101.96875,116.375 C1101.90625,116.25 1101.8125,116.114584 1101.6875,115.968752 C1101.5625,115.822916 1101.45833,115.708332 1101.375,115.625 C1101.29167,115.541668 1101.16667,115.4375 1101,115.3125 C1100.83333,115.1875 1100.69792,115.083332 1100.59375,115 C1100.48958,114.916668 1100.3125,114.791668 1100.0625,114.625 C1099.8125,114.458332 1099.64583,114.333332 1099.5625,114.25 Z M1100.625,106 C1100.5,104.91666 1100.09375,104.000004 1099.40625,103.25 C1098.71875,102.499996 1097.95834,102.114584 1097.125,102.093752 C1096.29166,102.072916 1095.63542,102.42708 1095.15625,103.156248 C1094.67708,103.88542 1094.51042,104.781244 1094.65625,105.843752 C1094.80208,106.906256 1095.21875,107.833328 1095.90625,108.625 C1096.59375,109.416672 1097.34374,109.822916 1098.15625,109.843752 C1098.96876,109.864584 1099.61458,109.500004 1100.09375,108.75 C1100.57292,107.999996 1100.75,107.08334 1100.625,106 Z" id="Page-1"></path>
                </g>
            </g>
        </g>
    </g>
</svg>