<?xml version="1.0" encoding="UTF-8"?>
<svg width="24px" height="18px" viewBox="0 0 24 18" version="1.1" xmlns="http://www.w3.org/2000/svg" xmlns:xlink="http://www.w3.org/1999/xlink">
    <!-- Generator: Sketch 46.1 (44463) - http://www.bohemiancoding.com/sketch -->
    <title>Combined Shape</title>
    <desc>Created with Sketch.</desc>
    <defs></defs>
    <g id="Page-1" stroke="none" stroke-width="1" fill="none" fill-rule="evenodd">
        <g id="Home" transform="translate(-135.000000, -72.000000)" fill-rule="nonzero" fill="#FFFFFF">
            <path d="M150.596003,72.5082129 C150.536359,72.322682 150.405996,72.1687265 150.233959,72.0801777 C150.061631,71.9915307 149.861812,71.9757429 149.677925,72.0360503 L146.630032,73.035878 C146.247394,73.1613958 146.037861,73.5762909 146.162299,73.9625523 L146.314616,74.4359897 L138.561704,80.1848027 L135.503418,81.1878664 C135.319627,81.2481738 135.167116,81.3796733 135.079398,81.553437 C134.991679,81.7272007 134.975943,81.9291078 135.035684,82.1146388 L136.893892,87.8866922 C136.993947,88.1974468 137.279542,88.3950393 137.586604,88.3950393 C137.661305,88.3950393 137.737172,88.38337 137.811971,88.3588549 L140.869772,87.3557912 L142.440831,87.3641263 C142.756345,88.8679864 144.081347,90 145.663577,90 C147.233763,90 148.550022,88.8849509 148.878455,87.3983495 L150.489731,87.4068808 L150.642048,87.8804163 C150.701693,88.0659473 150.831958,88.2199027 151.004189,88.3084516 C151.107547,88.3616006 151.221008,88.3885673 151.334954,88.3885673 C151.410724,88.3885673 151.486785,88.3766039 151.560029,88.352579 L154.608019,87.3528493 C154.990657,87.2273316 155.20019,86.8124364 155.07585,86.426175 L150.596003,72.5082129 Z M138.054434,86.7326149 L136.646669,82.3593985 L138.430564,81.7742699 L139.838135,86.1474863 L138.054434,86.7326149 Z M145.66348,88.5290884 C144.894902,88.5290884 144.236092,88.0498653 143.962252,87.3722654 L147.358103,87.3903086 C147.079989,88.0585928 146.425356,88.5290884 145.66348,88.5290884 Z M141.286312,85.8870369 L140.520065,83.5064154 L139.753817,81.1257939 L146.788663,75.909549 L148.946065,82.611905 L150.015198,85.9335177 L141.286312,85.8870369 Z M151.80259,86.7264371 L151.713123,86.4486309 C151.713026,86.4481406 151.712929,86.4475523 151.712735,86.4469639 L149.787888,80.4669236 L147.773186,74.2074101 L149.435364,73.6620941 L153.464768,86.1810231 L151.80259,86.7264371 Z M153.049394,76.0833127 C152.690944,75.8988604 152.548438,75.4559199 152.731257,75.0939775 L154.038871,72.5041925 C154.221593,72.1422501 154.660378,71.9985911 155.018828,72.1829453 C155.377278,72.3673977 155.519783,72.8103382 155.336964,73.1721825 L154.029351,75.7619676 C153.900639,76.0169256 153.644867,76.1636245 153.379673,76.1636245 C153.268349,76.1636245 153.155471,76.1378345 153.049394,76.0833127 Z M158.525128,83.0769092 C158.883675,83.2613615 159.026278,83.704204 158.843556,84.0660483 C158.714844,84.3210063 158.458975,84.4678033 158.193781,84.4678033 C158.082554,84.4678033 157.969677,84.4420133 157.863696,84.3875895 L155.297817,83.0681818 C154.939367,82.8838275 154.796667,82.4409851 154.979389,82.0790428 C155.162014,81.7171004 155.600702,81.5732453 155.959249,81.7575015 L158.525128,83.0769092 Z M154.840186,78.810481 C154.715845,78.4242196 154.925281,78.0093244 155.307822,77.8837086 L158.046029,76.9854719 C158.428765,76.8602482 158.839768,77.071275 158.964108,77.4576345 C159.088545,77.843994 158.879013,78.2588891 158.496472,78.3844069 L155.758264,79.2826436 C155.683466,79.3071588 155.607599,79.318828 155.532898,79.318828 C155.225835,79.318828 154.940241,79.1212356 154.840186,78.810481 Z" id="Combined-Shape"></path>
        </g>
    </g>
</svg>