<?xml version="1.0" encoding="UTF-8"?>
<svg width="115px" height="23px" viewBox="0 0 115 23" version="1.1" xmlns="http://www.w3.org/2000/svg" xmlns:xlink="http://www.w3.org/1999/xlink">
    <!-- Generator: Sketch 46.1 (44463) - http://www.bohemiancoding.com/sketch -->
    <title>Logo</title>
    <desc>Created with Sketch.</desc>
    <defs>
        <path d="M68.5,23 C73.1932947,23 77,19.1948697 77,14.5035168 C77,9.81216384 73.1932947,6 68.5,6 C63.8067053,6 60,9.80513033 60,14.4964832 C60,19.1878362 63.8067053,23 68.5,23 Z M65.5306291,17.8585023 C65.6080298,17.5771618 65.6854305,17.3028548 65.7698675,17.0215143 C65.8683775,16.6979727 65.959851,16.6628051 66.2553808,16.8175424 C66.7620033,17.0777824 67.2967715,17.2254861 67.8596854,17.2958213 C68.218543,17.3380223 68.5774007,17.3028548 68.9081126,17.155151 C69.5343543,16.880844 69.6328642,16.1563922 69.1051325,15.7203144 C68.9221854,15.5726107 68.7181291,15.4600745 68.5070364,15.3686388 C67.9581954,15.1294994 67.388245,14.9466281 66.8675497,14.6371535 C66.0302152,14.1377741 65.495447,13.4414564 65.5587748,12.421597 C65.6291391,11.268101 66.2835265,10.5436492 67.3389901,10.1638395 C67.7752483,10.0020687 67.7752483,10.0091022 67.7822848,9.55192387 C67.7822848,9.39718659 67.7822848,9.24244932 67.7822848,9.08771204 C67.7893212,8.74306992 67.852649,8.68680182 68.1903974,8.6727348 C68.2959437,8.6727348 68.4014901,8.6727348 68.5070364,8.6727348 C69.2388245,8.6727348 69.2388245,8.6727348 69.2388245,9.40422011 C69.2388245,9.91766653 69.2388245,9.92470004 69.7524834,10.0020687 C70.1465232,10.0653703 70.5194536,10.1779065 70.8853477,10.3396773 C71.089404,10.4311129 71.1597682,10.5717832 71.1034768,10.7827886 C71.0120033,11.0992966 70.9275662,11.4158047 70.8220199,11.7252793 C70.7235099,12.0206868 70.6320364,12.0628879 70.3505795,11.9292511 C69.7806291,11.6549441 69.1825331,11.5353744 68.549255,11.570542 C68.3803808,11.5775755 68.2255795,11.598676 68.0707781,11.6690112 C67.5289735,11.9081506 67.4375,12.5059992 67.901904,12.8787753 C68.134106,13.0686802 68.4014901,13.2023169 68.682947,13.3148531 C69.1614238,13.5117915 69.6469371,13.7087298 70.1113411,13.9619363 C71.5678808,14.7707902 71.9619205,16.5995035 70.9346026,17.8444353 C70.5616722,18.2945801 70.0831954,18.5970211 69.513245,18.7517584 C69.2669702,18.8220935 69.1543874,18.9486967 69.1684603,19.2019032 C69.1825331,19.4551096 69.1684603,19.7012826 69.1684603,19.954489 C69.1684603,20.1795614 69.0558775,20.2991312 68.8307119,20.3061647 C68.5633278,20.3131982 68.2889073,20.3131982 68.0215232,20.3061647 C67.7822848,20.2991312 67.669702,20.1654944 67.669702,19.9333885 C67.669702,19.7505172 67.669702,19.5676458 67.6626656,19.3847745 C67.6556291,18.9838643 67.6485927,18.9627638 67.254553,18.8994621 C66.7549669,18.8220935 66.2694536,18.7095573 65.8120861,18.4844849 C65.4673013,18.3227141 65.4321192,18.2312784 65.5306291,17.8585023 Z" id="path-1"></path>
    </defs>
    <g id="Page-1" stroke="none" stroke-width="1" fill="none" fill-rule="evenodd">
        <g id="Home" transform="translate(-131.000000, -19.000000)">
            <g id="Logo" transform="translate(135.000000, 16.000000)">
                <text id="com" font-family="HelveticaNeue-Bold, Helvetica Neue" font-size="18" font-weight="bold" fill="#4C5169">
                    <tspan x="74" y="23">com</tspan>
                </text>
                <g id="Shape" fill-rule="nonzero">
                    <use fill="#E03737" fill-rule="evenodd" xlink:href="#path-1"></use>
                    <path stroke="#FFFFFF" stroke-width="2" d="M68.5,24 C63.2555975,24 59,19.7412989 59,14.4964832 C59,9.25275292 63.2545132,5 68.5,5 C73.7444025,5 78,9.25870107 78,14.5035168 C78,19.7472471 73.7454868,24 68.5,24 Z M70.2542252,11.0719386 C70.2141643,11.0894579 70.1783498,11.1070329 70.1463041,11.12455 C70.0907822,11.1060528 70.0352298,11.0890459 69.9796073,11.0735101 C70.0055077,10.986078 70.0350793,10.8832174 70.0722001,10.7524745 C70.0921616,10.7583767 70.1120917,10.7644173 70.1319901,10.7705963 C70.1520946,10.876837 70.1983593,10.9814817 70.2620589,11.0685381 C70.259459,11.0696582 70.2568478,11.0707917 70.2542252,11.0719386 Z M68.6616571,19.3301157 C68.5765118,19.3562196 68.4952004,19.4025258 68.4240381,19.4621676 C68.3500079,19.3994643 68.2640162,19.3510819 68.1729417,19.3257997 C68.1727683,19.3202225 68.1725815,19.3147032 68.1723813,19.3092346 C68.33544,19.3120858 68.5001298,19.3121877 68.6612881,19.3095789 C68.6614143,19.3162637 68.6615369,19.3231053 68.6616571,19.3301157 Z M67.3784688,13.7775247 C67.4732821,13.8338769 67.5649633,13.8833027 67.6734021,13.9353562 C67.531969,13.8516269 67.4003979,13.7604375 67.2759268,13.6586167 C66.7582226,13.2430565 66.5481723,12.6642266 66.6129998,12.1195214 C66.5833337,12.2315337 66.5648423,12.352596 66.5568525,12.4835723 C66.5230362,13.0281657 66.7663308,13.4124493 67.3784688,13.7775247 Z M66.4796428,17.9989231 C66.4477446,17.8943755 66.3822811,17.7507284 66.3235181,17.6627689 C66.3396175,17.6560287 66.3555657,17.6489184 66.3712997,17.6414636 C66.4454833,17.6734078 66.5229352,17.702698 66.6048503,17.7297562 C66.5791544,17.8201094 66.5527228,17.9143739 66.5249543,18.0145684 C66.5098241,18.0094174 66.4947203,18.0042024 66.4796428,17.9989231 Z M68.3770853,18.3815356 C68.3796922,18.3847155 68.382276,18.3878982 68.384837,18.3910837 C68.4060762,18.3584826 68.4287667,18.3268881 68.4528622,18.2963332 C68.4066623,18.3010365 68.3602205,18.3046802 68.3135513,18.3072771 C68.3342872,18.3303741 68.355394,18.3550757 68.3770853,18.3815356 Z"></path>
                </g>
                <text id="Xien5" stroke="#FFFFFF" stroke-width="8" font-family="HelveticaNeue-Bold, Helvetica Neue" font-size="24" font-weight="bold" fill="#FFFFFF">
                    <tspan x="0" y="23">Xien5</tspan>
                </text>
                <text id="Xien5" font-family="HelveticaNeue-Bold, Helvetica Neue" font-size="24" font-weight="bold" fill="#4C5169">
                    <tspan x="0" y="23">Xien5</tspan>
                </text>
            </g>
        </g>
    </g>
</svg>