<?xml version="1.0" encoding="UTF-8"?>
<svg width="32px" height="24px" viewBox="0 0 32 24" version="1.1" xmlns="http://www.w3.org/2000/svg" xmlns:xlink="http://www.w3.org/1999/xlink">
    <!-- Generator: Sketch 46.2 (44496) - http://www.bohemiancoding.com/sketch -->
    <title>Page 1</title>
    <desc>Created with Sketch.</desc>
    <defs></defs>
    <g id="Page-1" stroke="none" stroke-width="1" fill="none" fill-rule="evenodd">
        <g id="Home" transform="translate(-1063.000000, -205.000000)" fill="#E03737">
            <path d="M1091.84507,217 C1091.84507,217.795325 1092.15806,218.497075 1092.78404,219.105263 C1093.41002,219.713452 1094.14867,220.017544 1095,220.017544 L1095,225.982456 C1095,226.777782 1094.68701,227.479529 1094.06104,228.087719 C1093.43505,228.695909 1092.6964,229 1091.84507,229 L1066.15493,229 C1065.3036,229 1064.56495,228.695909 1063.93897,228.087719 C1063.31299,227.479529 1063,226.777782 1063,225.982456 L1063,220.017544 C1063.90141,220.017544 1064.65258,219.725147 1065.25352,219.140353 C1065.85446,218.555555 1066.15493,217.84211 1066.15493,217 C1066.15493,216.204675 1065.84194,215.502925 1065.21596,214.894737 C1064.58998,214.286548 1063.85133,213.982456 1063,213.982456 L1063,208.017544 C1063,207.222219 1063.31299,206.520469 1063.93897,205.912281 C1064.56495,205.304092 1065.3036,205 1066.15493,205 L1091.84507,205 C1092.6964,205 1093.43505,205.304092 1094.06104,205.912281 C1094.68701,206.520469 1095,207.222219 1095,208.017544 L1095,213.982456 C1094.14867,213.982456 1093.41002,214.286548 1092.78404,214.894737 C1092.15806,215.502925 1091.84507,216.204675 1091.84507,217 Z M1083.95547,225 L1082.46559,219.051282 L1087,215.08547 L1081.17004,214.74359 L1079.03239,209 L1076.89474,214.74359 L1071,215.08547 L1075.59919,219.051282 L1074.10931,225 L1079.03239,221.649573 L1083.95547,225 Z" id="Page-1"></path>
        </g>
    </g>
</svg>