<?xml version="1.0" encoding="UTF-8"?>
<svg width="32px" height="32px" viewBox="0 0 32 32" version="1.1" xmlns="http://www.w3.org/2000/svg" xmlns:xlink="http://www.w3.org/1999/xlink">
    <!-- Generator: Sketch 46.1 (44463) - http://www.bohemiancoding.com/sketch -->
    <title>Page 1</title>
    <desc>Created with Sketch.</desc>
    <defs></defs>
    <g id="Page-1" stroke="none" stroke-width="1" fill="none" fill-rule="evenodd" opacity="0.800000012">
        <g id="Home" transform="translate(-1136.000000, -2137.000000)" fill="#727896">
            <g id="Group-12" transform="translate(-38.000000, 1142.000000)">
                <g id="Group-9" transform="translate(38.000000, 900.000000)">
                    <path d="M1152,95 C1147.58331,95 1143.81252,96.562484 1140.6875,99.6875 C1137.56248,102.812516 1136,106.583312 1136,111 C1136,115.416688 1137.56248,119.187484 1140.6875,122.3125 C1143.81252,125.437516 1147.58331,127 1152,127 C1156.41669,127 1160.18748,125.437516 1163.3125,122.3125 C1166.43752,119.187484 1168,115.416688 1168,111 C1168,106.583312 1166.43752,102.812516 1163.3125,99.6875 C1160.18748,96.562484 1156.41669,95 1152,95 Z M1159.9375,107.4375 C1159.97917,107.604168 1160,107.770832 1160,107.9375 C1160,110.770848 1158.97918,113.34374 1156.9375,115.656248 C1154.89582,117.96876 1152.16668,119.125 1148.75,119.125 C1146.58332,119.125 1144.58334,118.541672 1142.75,117.375 C1143.04167,117.416668 1143.35416,117.4375 1143.6875,117.4375 C1145.47918,117.4375 1147.10416,116.875004 1148.5625,115.75 C1147.6875,115.708332 1146.91667,115.437504 1146.25,114.9375 C1145.58333,114.437496 1145.125,113.791672 1144.875,113 C1145.125,113.041668 1145.375,113.0625 1145.625,113.0625 C1145.95834,113.0625 1146.3125,113.020832 1146.6875,112.9375 C1145.77083,112.729164 1145.01042,112.270836 1144.40625,111.5625 C1143.80208,110.854164 1143.5,110.02084 1143.5,109.0625 L1143.5,109 C1144.04167,109.333336 1144.64583,109.5 1145.3125,109.5 C1144.10416,108.708328 1143.5,107.625008 1143.5,106.25 C1143.5,105.541664 1143.6875,104.875004 1144.0625,104.25 C1146.14584,106.833348 1148.85415,108.208332 1152.1875,108.375 C1152.10417,108.083332 1152.0625,107.770836 1152.0625,107.4375 C1152.0625,106.35416 1152.44791,105.427088 1153.21875,104.656248 C1153.98959,103.885412 1154.91666,103.5 1156,103.5 C1157.16667,103.5 1158.125,103.916664 1158.875,104.75 C1159.79167,104.583332 1160.625,104.270836 1161.375,103.8125 C1161.08333,104.77084 1160.52084,105.499996 1159.6875,106 C1160.4375,105.916668 1161.1875,105.708336 1161.9375,105.375 C1161.39583,106.166672 1160.72917,106.854164 1159.9375,107.4375 Z" id="Page-1"></path>
                </g>
            </g>
        </g>
    </g>
</svg>